<svg xmlns="http://www.w3.org/2000/svg" viewBox="0 0 24 24"><path fill-rule="evenodd" clip-rule="evenodd" d="M12 23c6.075 0 11-4.925 11-11S18.075 1 12 1 1 5.925 1 12s4.925 11 11 11Zm-.88-9.674c-.056.518.385.941.905.941s.89-.436 1.047-.932a1.467 1.467 0 0 1 .02-.057 1.656 1.656 0 0 1 .372-.587c.17-.169.385-.331.647-.487a4.12 4.12 0 0 0 .81-.621c.229-.232.406-.498.532-.796a2.59 2.59 0 0 0 .194-1.034c0-.58-.144-1.076-.433-1.487a2.713 2.713 0 0 0-1.193-.94c-.507-.218-1.09-.327-1.75-.327-.6 0-1.148.107-1.645.323a2.734 2.734 0 0 0-1.198.97 2.419 2.419 0 0 0-.308.612c-.185.543.303 1.028.876 1.028h.264c.4 0 .693-.348.917-.681.123-.186.28-.325.473-.418a1.349 1.349 0 0 1 .611-.144c.222 0 .424.046.607.14.185.092.333.225.442.397.11.172.164.373.164.602 0 .215-.048.41-.144.586a1.79 1.79 0 0 1-.388.473c-.162.142-.346.28-.552.412-.275.173-.51.365-.705.577-.196.212-.345.49-.448.835a3.633 3.633 0 0 0-.117.615Zm.097 3.775c.236.232.519.348.85.348.212 0 .408-.053.587-.159a1.286 1.286 0 0 0 .433-.433 1.14 1.14 0 0 0-.189-1.437 1.155 1.155 0 0 0-.83-.347c-.332 0-.615.116-.85.348a1.12 1.12 0 0 0-.344.835c-.003.328.111.61.343.845Z"/></svg>