<svg viewBox="0 0 24 24" xmlns="http://www.w3.org/2000/svg"><g clip-path="url(#clip0_727_477)"><path d="M17.305 14.764c2.49-3.68 2.112-8.738-1.145-11.995-3.692-3.692-9.7-3.692-13.391 0-3.692 3.692-3.692 9.698 0 13.39 3.257 3.258 8.314 3.638 11.995 1.146l5.424 5.424a1.797 1.797 0 1 0 2.541-2.541l-5.424-5.423Zm-3.036-.494a6.803 6.803 0 0 1-9.61 0 6.803 6.803 0 0 1 0-9.61 6.802 6.802 0 0 1 9.61 0 6.803 6.803 0 0 1 0 9.61Z"/></g><defs><clipPath id="clip0_727_477"><path d="M0 0h24v24H0z"/></clipPath></defs></svg>