<svg viewBox="0 0 28 28" fill="none" xmlns="http://www.w3.org/2000/svg"><path fill-rule="evenodd" clip-rule="evenodd" d="M3.7 3.7c-1.366 1.367-1.366 3.567-1.366 7.967v4.666c0 4.4 0 6.6 1.367 7.967s3.567 1.367 7.966 1.367h4.667c4.4 0 6.6 0 7.966-1.367 1.367-1.367 1.367-3.567 1.367-7.967v-4.666c0-4.4 0-6.6-1.367-7.967-1.366-1.367-3.566-1.367-7.966-1.367h-4.667c-4.4 0-6.6 0-7.966 1.367zm12.634.967a3.5 3.5 0 0 0-3.5 3.5v11.666a3.5 3.5 0 0 0 3.5 3.5c2.266 0 3.73-.005 4.81-.15 1.012-.136 1.329-.355 1.507-.533.177-.178.397-.495.533-1.507.145-1.08.15-2.544.15-4.81v-4.666c0-2.266-.005-3.73-.15-4.81-.136-1.012-.356-1.33-.533-1.507-.178-.178-.495-.397-1.507-.533-1.08-.145-2.544-.15-4.81-.15zm-10.5 3.5C5.834 7.522 6.356 7 7.001 7h1.166a1.167 1.167 0 1 1 0 2.333H7.001a1.167 1.167 0 0 1-1.167-1.166zm1.167 3.5A1.167 1.167 0 1 0 7 14h1.166a1.167 1.167 0 1 0 0-2.333H7.001zM5.834 17.5c0-.644.522-1.167 1.167-1.167h1.166a1.167 1.167 0 1 1 0 2.334H7.001A1.167 1.167 0 0 1 5.834 17.5z" fill="#A6DAFF" stroke="#309AF1"/></svg>